<?xml version="1.0" standalone="no"?>
<!DOCTYPE svg PUBLIC "-//W3C//DTD SVG 20010904//EN"
 "http://www.w3.org/TR/2001/REC-SVG-20010904/DTD/svg10.dtd">
<svg version="1.0" xmlns="http://www.w3.org/2000/svg"
 width="228.000000pt" height="228.000000pt" viewBox="0 0 228.000000 228.000000"
 preserveAspectRatio="xMidYMid meet">
<metadata>
Created by potrace 1.14, written by Peter Selinger 2001-2017
</metadata>
<g transform="translate(0.000000,228.000000) scale(0.100000,-0.100000)"
fill="#000000" stroke="none">
<path d="M261 2160 c-90 -32 -167 -96 -209 -172 -49 -88 -49 -85 -47 -863 1
-639 4 -735 17 -771 38 -99 111 -178 207 -223 l56 -26 760 0 760 0 57 27 c80
37 152 108 191 187 l32 66 3 710 c3 499 0 730 -8 776 -18 105 -85 201 -175
254 -93 55 -90 55 -870 54 -687 0 -723 -1 -774 -19z"/>
</g>
</svg>
